<svg xmlns="http://www.w3.org/2000/svg" xmlns:xlink="http://www.w3.org/1999/xlink" version="1.1" x="0px" y="0px" viewBox="0 0 512 640" style="enable-background:new 0 0 512 512;" xml:space="preserve"><g><path d="M328,384.0566406h-80h-48c-4.3867188,0-7.9433594,3.5561523-7.9433594,7.9433594v56.0566406h-32.1132813V376   c0-4.387207-3.5566406-7.9433594-7.9433594-7.9433594H56H8c-4.3867188,0-7.9433594,3.5561523-7.9433594,7.9433594v128   c0,4.387207,3.5566406,7.9433594,7.9433594,7.9433594h48h64h32h128h48c4.3867188,0,7.9433594-3.5561523,7.9433594-7.9433594V392   C335.9433594,387.612793,332.3867188,384.0566406,328,384.0566406z M207.9433594,399.9433594h32.1132813v48.1132813h-32.1132813   V399.9433594z M15.9433594,383.9433594h32.1132813v112.1132813H15.9433594V383.9433594z M63.9433594,383.9433594h80.1132813   v64.1132813H120c-4.3867188,0-7.9433594,3.5561523-7.9433594,7.9433594v40.0566406H63.9433594V383.9433594z    M127.9433594,463.9433594h16.1132813v32.1132813h-16.1132813V463.9433594z M159.9433594,463.9433594H200h48h24.0566406v32.1132813   H159.9433594V463.9433594z M320.0566406,496.0566406h-32.1132813V456c0-4.387207-3.5566406-7.9433594-7.9433594-7.9433594   h-24.0566406v-48.1132813h64.1132813V496.0566406z"/><path d="M504,79.9433594c4.3867188,0,7.9433594-3.5561523,7.9433594-7.9433594V16   c0-0.8457031-0.1416016-1.6663818-0.3935547-2.4436035l0.3710938-4.9645996   c0.1650391-2.2036133-0.5957031-4.3759766-2.0986328-5.9951172C508.3193359,0.9770508,506.2099609,0.0566406,504,0.0566406h-56h-64   h-64h-64h-64h-64H64H8C3.6132813,0.0566406,0.0566406,3.612793,0.0566406,8v8v56   c0,4.387207,3.5566406,7.9433594,7.9433594,7.9433594h56h64h16.0566406v24.1132813H136   c-4.3867188,0-7.9433594,3.5561523-7.9433594,7.9433594v16c0,2.1069336,0.8369141,4.1269531,2.3261719,5.6166992   l13.6738281,13.6738281v6.1262207c-9.3088379,3.2839355-16,12.1645508-16,22.583252   c0,7.5073242,3.4758301,14.2154541,8.8994141,18.6086426l-51.9404297,45.447998H64   c-13.2021484,0-23.9433594,10.7407227-23.9433594,23.9433594c0,3.1381836,0.6130371,6.1342773,1.7155762,8.8831787   C31.5805664,275.6318359,24.0566406,284.9515381,24.0566406,296c0,3.1381836,0.6130371,6.1342773,1.7155762,8.8831787   C15.5805664,307.6318359,8.0566406,316.9515381,8.0566406,328c0,13.2026367,10.7412109,23.9433594,23.9433594,23.9433594   h135.9599609c0.0112305,0,0.0227051,0.0019531,0.0341797,0.0019531c0.0095215,0,0.0187988-0.0019531,0.0283203-0.0019531H224   c6.1455078,0,11.7561035-2.3293457,16-6.1489258c4.2438965,3.8195801,9.8544922,6.1489258,16,6.1489258   s11.7563477-2.3293457,16-6.1489258c4.2436523,3.8195801,9.8544922,6.1489258,16,6.1489258   c13.2021484,0,23.9433594-10.7407227,23.9433594-23.9433594c0-11.0484619-7.5239258-20.3681641-17.7158203-23.1168213   c1.1025391-2.7489014,1.7158203-5.7449951,1.7158203-8.8831787c0-2.8803711-0.5117188-5.6433105-1.4482422-8.2033691   c0.487793,0.0936279,0.9897461,0.1467285,1.5048828,0.1467285h72.0566406V344v64v64v32   c0,4.387207,3.5566406,7.9433594,7.9433594,7.9433594S383.9433594,508.387207,383.9433594,504v-24.0566406h36.8798828   l-18.4404297,18.4399414c-3.1015625,3.1020508-3.1015625,8.1313477,0,11.2333984   c1.5517578,1.5512695,3.5839844,2.3266602,5.6171875,2.3266602s4.0654297-0.7753906,5.6171875-2.3266602l18.4394531-18.4394531V504   c0,4.387207,3.5566406,7.9433594,7.9433594,7.9433594S447.9433594,508.387207,447.9433594,504v-32v-64v-64v-56.0566406H504   c4.3867188,0,7.9433594-3.5561523,7.9433594-7.9433594v-32c0-4.387207-3.5566406-7.9433594-7.9433594-7.9433594h-8.0566406   V79.9433594H504z M488,64.0566406h-20.6982422l28.7548828-28.493042v28.493042H488z M460.3461914,191.3850098   l-28.9130859-34.1696777c-0.3857422-1.0321045-0.9858398-2.0020752-1.815918-2.8320313   c-0.5-0.4996338-1.0532227-0.9099121-1.6367188-1.2486572l-28.9311523-34.1915283   c7.2773438-4.439209,15.8203125-6.9997559,24.9506836-6.9997559c26.4980469,0,48.0566406,21.5581055,48.0566406,48.0566406   C472.0566406,171.9890137,467.6333008,182.9577637,460.3461914,191.3850098z M424.0566406,223.9433594v16.1132813h-16.1132813   v-16.1132813H424.0566406z M424,208.0566406c-10.387207,0-20.0068359-3.3234863-27.875-8.9477539l27.0546875-27.0544434   L448.125,201.5356445C441.0288086,205.6733398,432.7900391,208.0566406,424,208.0566406z M412.8818359,159.8842773   L384.8911133,187.875c-5.6240234-7.868042-8.9477539-17.487793-8.9477539-27.875   c0-11.6479492,4.1679688-22.3391113,11.0878906-30.6663818L412.8818359,159.8842773z M376.652832,117.0683594   c-8.6264648,9.5053711-14.4194336,21.6149902-16.0849609,34.9882813H360c-4.3867188,0-7.9433594,3.5561523-7.9433594,7.9433594   s3.5566406,7.9433594,7.9433594,7.9433594h0.5678711c1.4560547,11.692627,6.0756836,22.4100342,12.9814453,31.2734375   l-3.1665039,3.1665039c-3.1015625,3.1020508-3.1015625,8.1313477,0,11.2333984   c1.5517578,1.5512695,3.5839844,2.3266602,5.6171875,2.3266602s4.0654297-0.7753906,5.6171875-2.3266602l3.1660156-3.1660156   c2.3139648,1.8028564,4.753418,3.4484863,7.3051758,4.9246826c-0.0161133,0.206665-0.0317383,0.4136963-0.0317383,0.6246338   v24.0566406h-56.1132813V200v-44.7099609l39.5693359-39.5693359L376.652832,117.0683594z M261.6123047,149.6213379   c0.0014648-0.001709,0.003418-0.0029297,0.0048828-0.0046387s0.0029297-0.003418,0.0043945-0.005127L264,147.2333984   l33.6279297,33.6279297c-0.0273438,0.0206299-0.0527344,0.0439453-0.0800781,0.0646973   c-0.3691406,0.2806396-0.7285156,0.5737305-1.0810547,0.875c-0.0961914,0.0821533-0.1914063,0.1645508-0.2861328,0.248291   c-0.7539063,0.6650391-1.465332,1.3762207-2.1303711,2.1298828c-0.0844727,0.0957031-0.1674805,0.1920166-0.2504883,0.2890625   c-0.3007813,0.3519287-0.5932617,0.7106934-0.8740234,1.0797119c-0.0205078,0.0273438-0.0439453,0.0526123-0.0644531,0.0799561   L259.2333984,152L261.6123047,149.6213379z M303.9433594,200c0-4.4423828,3.6142578-8.0566406,8.0566406-8.0566406   s8.0566406,3.6142578,8.0566406,8.0566406v40.0566406h-16.1132813V200z M322.3828125,146.3833008   c-1.4892578,1.4897461-2.3261719,3.5097656-2.3261719,5.6166992v25.4550781   c-1.4418945-0.5168457-2.9467773-0.9006348-4.5004883-1.1329346l-45.9389648-45.9388428   c-3.1035156-3.1025391-8.1308594-3.1025391-11.234375,0L256,132.7661133l-26.3828125-26.3828125   c-0.0100098-0.0100098-0.0209961-0.0183105-0.03125-0.0281982c1.5102539-3.135498,2.3574219-6.6481934,2.3574219-10.3551025   V79.9433594H256h64h64h4.8227539L322.3828125,146.3833008z M455.9433594,52.8227539V15.9433594h36.8793945L455.9433594,52.8227539z    M376.0566406,64.0566406h-36.8793945l36.8793945-36.8793945V64.0566406z M248.0566406,64.0566406H224h-12.8227539   l36.8793945-36.8793945V64.0566406z M263.9433594,27.1772461l36.8793945,36.8793945h-36.8793945V27.1772461z    M327.9433594,52.8227539V15.9433594h36.8793945L327.9433594,52.8227539z M199.9433594,52.8227539V15.9433594h36.8793945   L199.9433594,52.8227539z M71.9433594,52.8227539V15.9433594h36.8793945L71.9433594,52.8227539z M120.0566406,27.1772461   v36.8793945H83.1772461L120.0566406,27.1772461z M199.9433594,79.9433594h16.1132813V96   c0,4.4423828-3.6142578,8.0566406-8.0566406,8.0566406S199.9433594,100.4423828,199.9433594,96V79.9433594z    M391.9433594,64.0566406V27.1772461l36.8793945,36.8793945H408H391.9433594z M440.0566406,52.8227539l-36.8793945-36.8793945   h36.8793945V52.8227539z M312.0566406,52.8227539l-36.8793945-36.8793945h36.8793945V52.8227539z M184.0566406,52.8227539   l-36.8793945-36.8793945h36.8793945V52.8227539z M56.0566406,52.8227539L19.1772461,15.9433594h36.8793945V52.8227539z    M15.9433594,35.1772461l28.8793945,28.8793945H15.9433594V35.1772461z M135.9433594,27.1772461l36.8793945,36.8793945h-36.8793945   V27.1772461z M143.9433594,119.9433594h16.1132813v4.7666016L152,132.7666016l-8.0566406-8.0566406V119.9433594z M152,167.9433594   c4.3867188,0,7.9433594-3.5561523,7.9433594-7.9433594v-12.7094727l13.6738281-13.6738281   c1.4892578-1.4897461,2.3261719-3.5097656,2.3261719-5.6166992v-16c0-4.387207-3.5566406-7.9433594-7.9433594-7.9433594h-8.0566406   V79.9433594h24.1132813V96c0,13.2026367,10.7412109,23.9433594,23.9433594,23.9433594   c3.7067871,0,7.2194824-0.847168,10.3549805-2.3574219c0.0097656,0.0100098,0.0180664,0.020874,0.027832,0.0307617L244.7661133,144   l-2.3833008,2.3833008c-3.1015625,3.1020508-3.1015625,8.1313477,0,11.2333984l45.6738281,45.6738281V248v30.2546387   c-2.7670898-2.5061035-6.1220703-4.3718262-9.8291016-5.37146c1.1025391-2.7489014,1.7158203-5.7449951,1.7158203-8.8831787   c0-13.2026367-10.7412109-23.9433594-23.9433594-23.9433594h-37.015625l-51.9404297-45.447998   c5.423584-4.3931885,8.8994141-11.1013184,8.8994141-18.6086426c0-4.387207-3.5566406-7.9433594-7.9433594-7.9433594   S160.0566406,171.612793,160.0566406,176c0,4.4423828-3.6142578,8.0566406-8.0566406,8.0566406   S143.9433594,180.4423828,143.9433594,176S147.5576172,167.9433594,152,167.9433594z M52.8522949,336.0566406l8.0568848-16.1132813   h110.2382813l-8.0563965,16.1132813H52.8522949z M68.8525391,304.0566406l8.0566406-16.1132813h110.2380371l-8.0563965,16.1132813   H68.8525391z M203.1469727,255.9433594l-8.0563965,16.1132813H84.8525391l8.0568848-16.1132813H203.1469727z    M233.4511719,255.9433594c-0.0166016,0.0461426-0.0275879,0.0947266-0.0439453,0.1408691   c-0.1904297,0.5419922-0.3618164,1.0925293-0.5136719,1.6513672c-0.0168457,0.0622559-0.036377,0.1231689-0.0527344,0.1855469   c-0.1513672,0.5762939-0.2770996,1.1624756-0.385498,1.7547607c-0.0202637,0.1109619-0.0410156,0.2216797-0.0598145,0.333252   c-0.098877,0.5865479-0.1774902,1.1793213-0.2329102,1.7791748c-0.0092773,0.1016846-0.0151367,0.2041016-0.0231934,0.3060303   c-0.0500488,0.6295166-0.0827637,1.2635498-0.0827637,1.9056396s0.0327148,1.276123,0.0827637,1.9056396   c0.0080566,0.1019287,0.013916,0.2043457,0.0231934,0.3060303c0.0554199,0.5998535,0.1340332,1.192627,0.2329102,1.7791748   c0.0187988,0.1115723,0.0395508,0.22229,0.0598145,0.333252c0.1083984,0.5922852,0.2341309,1.1784668,0.385498,1.7547607   c0.0163574,0.0623779,0.0358887,0.123291,0.0527344,0.1855469c0.1518555,0.5588379,0.3232422,1.109375,0.5136719,1.6513672   c0.0163574,0.0461426,0.0273438,0.0947266,0.0439453,0.1408691h-20.598877l8.0566406-16.1132813H233.4511719z M264.0566406,264   c0,4.4423828-3.6142578,8.0566406-8.0566406,8.0566406S247.9433594,268.4423828,247.9433594,264   s3.6142578-8.0566406,8.0566406-8.0566406S264.0566406,259.5576172,264.0566406,264z M248.0566406,296   c0,4.4423828-3.6142578,8.0566406-8.0566406,8.0566406S231.9433594,300.4423828,231.9433594,296   s3.6142578-8.0566406,8.0566406-8.0566406S248.0566406,291.5576172,248.0566406,296z M204.9089355,287.9433594h12.5422363   c-0.0166016,0.0461426-0.0275879,0.0947266-0.0439453,0.1408691c-0.1904297,0.5419922-0.3618164,1.0925293-0.5136719,1.6513672   c-0.0168457,0.0622559-0.036377,0.1231689-0.0527344,0.1855469c-0.1513672,0.5762939-0.2770996,1.1624756-0.385498,1.7547607   c-0.0202637,0.1109619-0.0410156,0.2216797-0.0598145,0.333252c-0.098877,0.5865479-0.1774902,1.1793213-0.2329102,1.7791748   c-0.0092773,0.1016846-0.0151367,0.2041016-0.0231934,0.3060303c-0.0500488,0.6295166-0.0827637,1.2635498-0.0827637,1.9056396   s0.0327148,1.276123,0.0827637,1.9056396c0.0080566,0.1019287,0.013916,0.2043457,0.0231934,0.3060303   c0.0554199,0.5998535,0.1340332,1.192627,0.2329102,1.7791748c0.0187988,0.1115723,0.0395508,0.22229,0.0598145,0.333252   c0.1083984,0.5922852,0.2341309,1.1784668,0.385498,1.7547607c0.0163574,0.0623779,0.0358887,0.123291,0.0527344,0.1855469   c0.1518555,0.5588379,0.3232422,1.109375,0.5136719,1.6513672c0.0163574,0.0461426,0.0273438,0.0947266,0.0439453,0.1408691   h-20.598877L204.9089355,287.9433594z M272,304.0566406c-4.4423828,0-8.0566406-3.6142578-8.0566406-8.0566406   s3.6142578-8.0566406,8.0566406-8.0566406s8.0566406,3.6142578,8.0566406,8.0566406S276.4423828,304.0566406,272,304.0566406z    M152,202.5546875l42.8591309,37.5019531h-85.7180176L152,202.5546875z M64,255.9433594h11.1477051l-8.0566406,16.1132813H64   c-4.4423828,0-8.0566406-3.6142578-8.0566406-8.0566406S59.5576172,255.9433594,64,255.9433594z M48,287.9433594h11.1477051   l-8.0566406,16.1132813H48c-4.4423828,0-8.0566406-3.6142578-8.0566406-8.0566406S43.5576172,287.9433594,48,287.9433594z    M23.9433594,328c0-4.4423828,3.6142578-8.0566406,8.0566406-8.0566406h11.1477051l-8.0566406,16.1132813H32   C27.5576172,336.0566406,23.9433594,332.4423828,23.9433594,328z M180.8522949,336.0566406l8.0566406-16.1132813h12.5422363   c-0.0166016,0.0461426-0.0275879,0.0947266-0.0439453,0.1408691c-0.1904297,0.5419922-0.3618164,1.0925293-0.5136719,1.6513672   c-0.0168457,0.0622559-0.036377,0.1231689-0.0527344,0.1855469c-0.1513672,0.5762939-0.2770996,1.1624756-0.385498,1.7547607   c-0.0202637,0.1109619-0.0410156,0.2216797-0.0598145,0.333252c-0.098877,0.5865479-0.1774902,1.1793213-0.2329102,1.7791748   c-0.0092773,0.1016846-0.0151367,0.2041016-0.0231934,0.3060303c-0.0500488,0.6295166-0.0827637,1.2635498-0.0827637,1.9056396   s0.0327148,1.276123,0.0827637,1.9056396c0.0080566,0.1019287,0.013916,0.2043457,0.0231934,0.3060303   c0.0554199,0.5998535,0.1340332,1.192627,0.2329102,1.7791748c0.0187988,0.1115723,0.0395508,0.22229,0.0598145,0.333252   c0.1083984,0.5922852,0.2341309,1.1784668,0.385498,1.7547607c0.0163574,0.0623779,0.0358887,0.123291,0.0527344,0.1855469   c0.1518555,0.5588379,0.3232422,1.109375,0.5136719,1.6513672c0.0163574,0.0461426,0.0273438,0.0947266,0.0439453,0.1408691   H180.8522949z M224,336.0566406c-4.4423828,0-8.0566406-3.6142578-8.0566406-8.0566406s3.6142578-8.0566406,8.0566406-8.0566406   s8.0566406,3.6142578,8.0566406,8.0566406S228.4423828,336.0566406,224,336.0566406z M256,336.0566406   c-4.4423828,0-8.0566406-3.6142578-8.0566406-8.0566406s3.6142578-8.0566406,8.0566406-8.0566406   s8.0566406,3.6142578,8.0566406,8.0566406S260.4423828,336.0566406,256,336.0566406z M288,336.0566406   c-4.4423828,0-8.0566406-3.6142578-8.0566406-8.0566406s3.6142578-8.0566406,8.0566406-8.0566406   s8.0566406,3.6142578,8.0566406,8.0566406S292.4423828,336.0566406,288,336.0566406z M420.8227539,336.0566406h-36.8793945   v-36.8793945L420.8227539,336.0566406z M383.9433594,351.9433594h36.8793945l-36.8793945,36.8793945V351.9433594z    M395.1772461,415.9433594h36.8793945v36.8793945L395.1772461,415.9433594z M432.0566406,400.0566406h-36.8793945   l36.8793945-36.8793945V400.0566406z M383.9433594,427.1772461l36.8793945,36.8793945h-36.8793945V427.1772461z    M432.0566406,324.8227539l-36.8793945-36.8793945h36.8793945V324.8227539z M496.0566406,255.9433594v16.1132813H440h-64   h-72.0566406v-16.1132813H328h72h32h56H496.0566406z M439.9433594,240.0566406v-18.1256104   c6.6855469-1.722168,12.940918-4.5157471,18.5976563-8.1621094c1.5141602,1.4366455,3.4819336,2.1744385,5.4628906,2.1744385   c1.8125,0,3.6347656-0.6171875,5.1269531-1.8793945c3.0927734-2.6174316,3.6791992-7.0900879,1.5185547-10.3972168   c3.6459961-3.892334,6.8168945-8.2321777,9.4072266-12.9385986v49.3284912H439.9433594z M480.0566406,129.2718506   C469.1708984,109.4926758,448.1274414,96.0566406,424,96.0566406c-13.0395508,0-25.1738281,3.9316406-35.296875,10.6595459   l-1.918457-2.2674561l24.5053711-24.5053711H448h32.0566406V129.2718506z"/></g><text x="0" y="527" fill="#000000" font-size="5px" font-weight="bold" font-family="'Helvetica Neue', Helvetica, Arial-Unicode, Arial, Sans-serif">Created by Chaowalit  Koetchuea</text><text x="0" y="532" fill="#000000" font-size="5px" font-weight="bold" font-family="'Helvetica Neue', Helvetica, Arial-Unicode, Arial, Sans-serif">from the Noun Project</text></svg>