<svg xmlns="http://www.w3.org/2000/svg" xmlns:xlink="http://www.w3.org/1999/xlink" version="1.1" x="0px" y="0px" viewBox="0 0 64 80" style="enable-background:new 0 0 64 64;" xml:space="preserve"><g><rect x="7" y="39" width="22" height="14"/><polygon points="11,4.414 4.414,11 11,11  "/><polygon points="7,17 39,17 39,7 13,7 13,13 7,13  "/><path d="M33,35h1c3.859,0,7-3.141,7-7v-1h2V3H13v2h28v14H5v-6H3v44h36.291C35.324,52.649,33,46.905,33,40.769V35z M5,21h2v2H5V21z    M31,55H5V37h26V55z M31,35H5v-2h26V35z M31,31H5v-2h26V31z M31,27H5v-2h26V27z M31,23H9v-2h22V23z"/><path d="M53.056,29H42.944c-0.462,4.165-3.779,7.482-7.944,7.944v3.824c0,8.709,5.088,16.566,13,20.139   c7.912-3.572,13-11.43,13-20.139v-3.824C56.835,36.482,53.518,33.165,53.056,29z M48,54c-3.859,0-7-3.141-7-7s3.141-7,7-7   c0.904,0,1.765,0.178,2.559,0.491l2.522-5.885l1.838,0.787l-2.614,6.099C53.942,42.775,55,44.764,55,47C55,50.859,51.859,54,48,54z   "/><path d="M48.445,50.499l-4-2.667l1.109-1.664l2,1.333l2.213-5.162C49.216,42.129,48.624,42,48,42c-2.757,0-5,2.243-5,5s2.243,5,5,5   s5-2.243,5-5c0-1.404-0.586-2.67-1.521-3.579L48.445,50.499z"/></g><text x="0" y="79" fill="#000000" font-size="5px" font-weight="bold" font-family="'Helvetica Neue', Helvetica, Arial-Unicode, Arial, Sans-serif">Created by Eucalyp</text><text x="0" y="84" fill="#000000" font-size="5px" font-weight="bold" font-family="'Helvetica Neue', Helvetica, Arial-Unicode, Arial, Sans-serif">from the Noun Project</text></svg>