<svg xmlns="http://www.w3.org/2000/svg" xmlns:xlink="http://www.w3.org/1999/xlink" version="1.1" x="0px" y="0px" viewBox="0 0 64 80" style="enable-background:new 0 0 64 64;" xml:space="preserve"><g><path d="M61.414,12.586l-10-10C51.036,2.208,50.534,2,50,2s-1.036,0.208-1.414,0.586S48,3.466,48,4s0.208,1.036,0.586,1.414   l-0.207-0.207l-3.914,3.914C43.521,10.065,43,11.321,43,12.657v2.929l1.707-1.707c0.09-0.09,0.193-0.163,0.293-0.24v-0.982   c0-0.802,0.312-1.555,0.879-2.122l3.914-3.914l7.586,7.586l-3.914,3.914C52.897,18.688,52.145,19,51.343,19h-0.982   c-0.077,0.1-0.15,0.203-0.24,0.293L48.414,21h2.929c1.336,0,2.592-0.521,3.536-1.465l3.914-3.914l-0.207-0.207   C58.964,15.792,59.466,16,60,16s1.036-0.208,1.414-0.586S62,14.534,62,14S61.792,12.964,61.414,12.586z"/><path d="M35,57c0.034,0.003-0.018,0.008-0.07,0.01l-0.844,0.024l-0.166-0.827C33.546,54.349,31.897,53,30,53   c-0.686,0-1.355,0.187-1.991,0.555l-0.752,0.436l-0.536-0.684C25.572,51.841,23.852,51,22,51c-2.125,0-4.112,1.147-5.187,2.994   l-0.177,0.304C18.588,54.98,20,56.819,20,59h-2c0-1.654-1.346-3-3-3s-3,1.346-3,3h-2c0-2.744,2.223-4.975,4.962-4.996   C14.102,53.365,13.071,53,12,53c-2.757,0-5,2.243-5,5v1H6c-1.304,0-2.416,0.836-2.829,2H35c1.103,0,2-0.897,2-2S36.103,57,35,57z"/><path d="M12,51c1.317,0,2.602,0.374,3.709,1.069C17.214,50.153,19.537,49,22,49c1.094,0,2.153,0.22,3.127,0.634l7.405-5.758   C32.829,43.644,33,43.294,33,42.917c0-0.319-0.13-0.633-0.355-0.858l-2.842-2.842l-4,2L25,40.414l-3.293,3.293l-1.414-1.414   L23.586,39l-0.803-0.803l2-4l-2.842-2.842c-0.492-0.492-1.389-0.438-1.817,0.113L8.357,46.598C7.482,47.723,7,49.128,7,50.555   c0,0.75,0.144,1.484,0.395,2.18C8.627,51.656,10.238,51,12,51z"/><path d="M29.407,37.178l19.3-19.299C48.894,17.692,49,17.435,49,17.172C49,15.975,48.025,15,46.828,15   c-0.263,0-0.521,0.106-0.707,0.293l-19.299,19.3l-1.605,3.21l0.98,0.98L29.407,37.178z"/></g><text x="0" y="79" fill="#000000" font-size="5px" font-weight="bold" font-family="'Helvetica Neue', Helvetica, Arial-Unicode, Arial, Sans-serif">Created by Eucalyp</text><text x="0" y="84" fill="#000000" font-size="5px" font-weight="bold" font-family="'Helvetica Neue', Helvetica, Arial-Unicode, Arial, Sans-serif">from the Noun Project</text></svg>