<svg xmlns="http://www.w3.org/2000/svg" data-name="Layer 1" viewBox="0 0 128 160" x="0px" y="0px"><title>season winter seasons spring summer1</title><g><path d="M64,39A12,12,0,1,0,52,27,12.0134,12.0134,0,0,0,64,39Zm0-20a8,8,0,1,1-8,8A8.0092,8.0092,0,0,1,64,19Z"/><path d="M64,13a2,2,0,0,0,2-2V6a2,2,0,0,0-4,0v5A2,2,0,0,0,64,13Z"/><path d="M75.3135,17.6865a1.9946,1.9946,0,0,0,1.4145-.5859l3.5357-3.5361a2,2,0,0,0-2.8286-2.8282l-3.5362,3.5362a2,2,0,0,0,1.4146,3.414Z"/><path d="M78,27a2,2,0,0,0,2,2h5a2,2,0,0,0,0-4H80A2,2,0,0,0,78,27Z"/><path d="M73.8994,36.8994a2,2,0,0,0-.0005,2.8281l3.5362,3.5362a2,2,0,0,0,2.8286-2.8282L76.728,36.8994A2,2,0,0,0,73.8994,36.8994Z"/><path d="M62,43v5a2,2,0,0,0,4,0V43a2,2,0,0,0-4,0Z"/><path d="M51.272,36.8994l-3.5357,3.5361a2,2,0,1,0,2.8286,2.8282l3.5362-3.5362a2,2,0,0,0-2.8291-2.8281Z"/><path d="M43,29h5a2,2,0,0,0,0-4H43a2,2,0,0,0,0,4Z"/><path d="M51.272,17.1006a2,2,0,0,0,2.8291-2.8281l-3.5362-3.5362a2,2,0,0,0-2.8286,2.8282Z"/><path d="M123.8843,68.6074a7.4021,7.4021,0,0,0-6.6983-6.0039,5.1563,5.1563,0,0,0-.7539-1.41A7.2712,7.2712,0,0,0,111.61,57.999a11.2674,11.2674,0,0,0-20.88,2.2725,8.89,8.89,0,0,0-1.1035.04,8.4888,8.4888,0,0,0-7.2539,10.9356A3.8562,3.8562,0,0,0,86.0674,74h34.0742a3.8605,3.8605,0,0,0,3.8418-3.5859A7.5132,7.5132,0,0,0,123.8843,68.6074ZM86.1743,70a4.4909,4.4909,0,0,1,5.6162-5.54,1.9994,1.9994,0,0,0,2.5738-1.7774,7.2668,7.2668,0,0,1,14.0673-2.0019,1.9937,1.9937,0,0,0,2.1241,1.292c.4956-.0567,1.3227-.1631,2.6894,1.6386a1.618,1.618,0,0,1,.2671.959,1.9992,1.9992,0,0,0,2.4321,2.0918,3.4011,3.4011,0,0,1,.7251-.0771h.001a3.3931,3.3931,0,0,1,3.2754,2.72A3.5231,3.5231,0,0,1,119.999,70Z"/><path d="M78.9727,105.7617a2,2,0,1,0,1.0351-3.8633l-4.8984-1.3125,1.3125-4.8984a2,2,0,0,0-3.8633-1.0352l-1.6155,6.0293L66,103.5355V97.8281l4.4141-4.414a2,2,0,0,0-2.8282-2.8282L64,94.1719l-3.5859-3.586a2,2,0,0,0-2.8282,2.8282L62,97.8281v5.708l-4.9429-2.8535-1.6157-6.03a2,2,0,0,0-3.8633,1.0352l1.3125,4.8984-4.8984,1.3125a2,2,0,1,0,1.0351,3.8633l6.0293-1.6155L59.9994,107l-4.9428,2.8538-6.0293-1.6155a2,2,0,1,0-1.0351,3.8633l4.8984,1.3125-1.3125,4.8984a2,2,0,1,0,3.8633,1.0352l1.6157-6.03L62,110.4639v5.708l-4.4141,4.414a2,2,0,1,0,2.8282,2.8282L64,119.8281l3.5859,3.586a2,2,0,0,0,2.8282-2.8282L66,116.1719v-5.7075l4.9431,2.854,1.6155,6.0293a2,2,0,0,0,3.8633-1.0352l-1.3125-4.8984,4.8984-1.3125a2,2,0,1,0-1.0351-3.8633l-6.03,1.6152L68,107l4.9428-2.8535Z"/><path d="M104.0288,76.2852a1.9993,1.9993,0,0,0-2.7436.6855l-3,5a2,2,0,1,0,3.43,2.0586l3-5A2,2,0,0,0,104.0288,76.2852Z"/><path d="M89.998,85a1.9979,1.9979,0,0,0,1.7168-.9707l3-5a2,2,0,0,0-3.43-2.0586l-3,5A2,2,0,0,0,89.998,85Z"/><path d="M114.0288,76.2852a1.9994,1.9994,0,0,0-2.7436.6855l-3,5a2,2,0,1,0,3.43,2.0586l3-5A2,2,0,0,0,114.0288,76.2852Z"/><path d="M38.3413,67.8408,39.9854,54.24A2,2,0,0,0,37.76,52.0146L24.1592,53.6582A22.1421,22.1421,0,0,0,4.95,79.126l.8608,5.4023a2,2,0,0,0,1.66,1.66l5.4023.8613a22.48,22.48,0,0,0,3.5474.2832,22.1573,22.1573,0,0,0,21.92-19.4922ZM27.2837,79.668a17.997,17.997,0,0,1-13.78,3.4326l-1.5314-.2444,1.0671-1.0671h6.2934a2,2,0,0,0,0-4H17.0391l.7389-.7391.0026-.0024,4.1608-4.1609h6.293a2,2,0,1,0,0-4h-2.293l2.4727-2.4726a2,2,0,1,0-2.8282-2.8282L19.7028,69.469l-.0077.0078-1.33,1.33V68.5137a2,2,0,0,0-4,0v6.2929l-3.567,3.5672-.0026.0024L9.1443,80.0276,8.9,78.4971A18.1427,18.1427,0,0,1,24.6392,57.6289L35.7085,56.291,34.3706,67.36A17.9907,17.9907,0,0,1,27.2837,79.668Z"/><path d="M100.1543,87.374a1.9977,1.9977,0,0,0-2.7905.4619A41.5289,41.5289,0,0,1,84.9751,99.2422a2,2,0,0,0,2.05,3.4355,45.5943,45.5943,0,0,0,13.5918-12.5136A2,2,0,0,0,100.1543,87.374Z"/><path d="M43.0229,99.2314A40.8129,40.8129,0,0,1,31.3145,88.7529,2,2,0,1,0,28.126,91.167a44.7863,44.7863,0,0,0,12.8511,11.5019,2,2,0,0,0,2.0458-3.4375Z"/><path d="M23.49,49.4492a1.9961,1.9961,0,0,0,2.61-1.09,41.2845,41.2845,0,0,1,10.25-14.6446,2,2,0,1,0-2.7012-2.9492A45.2969,45.2969,0,0,0,22.4,46.84,2,2,0,0,0,23.49,49.4492Z"/><path d="M101.2314,46.833a2,2,0,1,0,3.6368-1.666A44.5817,44.5817,0,0,0,94.35,30.7646,2,2,0,1,0,91.65,33.7158,40.61,40.61,0,0,1,101.2314,46.833Z"/></g><text x="0" y="143" fill="#000000" font-size="5px" font-weight="bold" font-family="'Helvetica Neue', Helvetica, Arial-Unicode, Arial, Sans-serif">Created by Mutualism</text><text x="0" y="148" fill="#000000" font-size="5px" font-weight="bold" font-family="'Helvetica Neue', Helvetica, Arial-Unicode, Arial, Sans-serif">from the Noun Project</text></svg>