<svg xmlns="http://www.w3.org/2000/svg" viewBox="0 0 64 80" x="0px" y="0px"><g data-name="11-best price"><path d="M42,42a4,4,0,0,0-4-4H25.13L26,31.12A.49.49,0,0,0,26,31c0-5.54-3.92-7-6-7a1,1,0,0,0-1,.73l-4,13.89A7.67,7.67,0,0,1,12,41.79V41a1,1,0,0,0-1-1H1a1,1,0,0,0-1,1V63a1,1,0,0,0,1,1H11a1,1,0,0,0,1-1v-.67L17.73,64A.8.8,0,0,0,18,64H35a4,4,0,0,0,3-6.58,4,4,0,0,0,1-6,4,4,0,0,0,1-6A4,4,0,0,0,42,42ZM10,62H2V42h8Zm25,0H18.14L12,60.25V43.88c3-.69,4.81-4.26,4.89-4.43a1.34,1.34,0,0,0,.07-.18l3.77-13.18c1.17.26,3.25,1.23,3.27,4.85l-1,7.94a1,1,0,0,0,.24.78A1,1,0,0,0,24,40H38a2,2,0,0,1,0,4H33a1,1,0,0,0,0,2h4a2,2,0,0,1,0,4H32a1,1,0,0,0,0,2h4a2,2,0,0,1,0,4H31a1,1,0,0,0,0,2h4a2,2,0,0,1,0,4Z"/><path d="M13,15h1v1a1,1,0,0,0,2,0V15h1a1,1,0,0,0,0-2H16V12a1,1,0,0,0-2,0v1H13a1,1,0,0,0,0,2Z"/><path d="M54,50H53V49a1,1,0,0,0-2,0v1H50a1,1,0,0,0,0,2h1v1a1,1,0,0,0,2,0V52h1a1,1,0,0,0,0-2Z"/><path d="M42,0A22,22,0,0,0,20,22a1,1,0,0,0,2,0A20,20,0,1,1,45.81,41.64a1,1,0,0,0,.19,2l.19,0A22,22,0,0,0,42,0Z"/><path d="M51,26a8,8,0,0,0-8-8H41a2,2,0,0,1,0-4h7a3,3,0,0,0,0-6H45V5a1,1,0,0,0-1-1H40a1,1,0,0,0-1,1V8.26A8,8,0,0,0,41,24h2a2,2,0,0,1,0,4H36a3,3,0,0,0,0,6h3v3a1,1,0,0,0,1,1h4a1,1,0,0,0,1-1V33.74A8,8,0,0,0,51,26Zm-7.14,5.93a1,1,0,0,0-.86,1V36H41V33a1,1,0,0,0-1-1H36a1,1,0,0,1,0-2h7a4,4,0,0,0,0-8H41a6,6,0,0,1-.86-11.93,1,1,0,0,0,.86-1V6h2V9a1,1,0,0,0,1,1h4a1,1,0,0,1,0,2H41a4,4,0,0,0,0,8h2a6,6,0,0,1,.86,11.93Z"/></g><text x="0" y="79" fill="#000000" font-size="5px" font-weight="bold" font-family="'Helvetica Neue', Helvetica, Arial-Unicode, Arial, Sans-serif">Created by tulpahn</text><text x="0" y="84" fill="#000000" font-size="5px" font-weight="bold" font-family="'Helvetica Neue', Helvetica, Arial-Unicode, Arial, Sans-serif">from the Noun Project</text></svg>