<svg xmlns="http://www.w3.org/2000/svg" viewBox="0 0 88 110" x="0px" y="0px"><title>calendar, delivery, box, shipping, ecommerce</title><g><path d="M71,46A17,17,0,1,0,88,63,17.019,17.019,0,0,0,71,46Zm0,31A14,14,0,1,1,85,63,14.0156,14.0156,0,0,1,71,77Zm0-26A12,12,0,1,0,83,63,12.0136,12.0136,0,0,0,71,51Zm4.95,5.6362.707-.707a1,1,0,1,1,1.4141,1.4141l-.707.707A1,1,0,0,1,75.95,56.6362ZM70,54a1,1,0,0,1,2,0v1a1,1,0,0,1-2,0ZM62,64a1,1,0,0,1,0-2h1a1,1,0,0,1,0,2Zm4.05,5.3638-.707.707a1,1,0,1,1-1.4141-1.4141l.707-.707A1,1,0,0,1,66.05,69.3638Zm0-11.3135a1,1,0,0,1-1.4141,0l-.707-.707a1,1,0,0,1,1.4141-1.4141l.707.707A1,1,0,0,1,66.05,58.05ZM72,72a1,1,0,0,1-2,0V71a1,1,0,0,1,2,0Zm1.707-6.293a.9995.9995,0,0,1-1.414,0l-2-2A1,1,0,0,1,70,63V60a1,1,0,0,1,2,0v2.5859l1.707,1.7071A.9994.9994,0,0,1,73.707,65.707Zm4.3638,4.3638a1,1,0,0,1-1.4141,0l-.707-.707A1,1,0,0,1,77.3638,67.95l.707.707A1,1,0,0,1,78.0708,70.0708ZM80,64H79a1,1,0,0,1,0-2h1a1,1,0,0,1,0,2ZM14,13a1,1,0,0,1,1-1h5V9a1,1,0,0,1,2,0v8a1,1,0,0,1-2,0V14H15A1,1,0,0,1,14,13Zm10,0a1,1,0,0,1,1-1h5V9a1,1,0,0,1,2,0v8a1,1,0,0,1-2,0V14H25A1,1,0,0,1,24,13Zm10,0a1,1,0,0,1,1-1h5V9a1,1,0,0,1,2,0v8a1,1,0,0,1-2,0V14H35A1,1,0,0,1,34,13Zm10,0a1,1,0,0,1,1-1h5V9a1,1,0,0,1,2,0v8a1,1,0,0,1-2,0V14H45A1,1,0,0,1,44,13Zm10,0a1,1,0,0,1,1-1h5V9a1,1,0,0,1,2,0v8a1,1,0,0,1-2,0V14H55A1,1,0,0,1,54,13ZM35.4,37.2,33,39V32h6v7l-2.4-1.8a1,1,0,0,0-1.2,0ZM41,32h8v4H41ZM31,36H23V32h8ZM0,56H8v8ZM70,44.02c.33-.01.67-.02,1-.02s.67.01,1,.02V13a1.0029,1.0029,0,0,0-1-1H65a1,1,0,0,0,0,2h5v8H2V14h8v3a1,1,0,0,0,2,0V9a1,1,0,0,0-2,0v3H1a1.0029,1.0029,0,0,0-1,1V54H9a1.0029,1.0029,0,0,1,1,1v9H52.02c-.01-.33-.02-.67-.02-1s.01-.67.02-1A19.0505,19.0505,0,0,1,70,44.02ZM51,55a1.0029,1.0029,0,0,1-1,1H22a1.0029,1.0029,0,0,1-1-1V31a1.0029,1.0029,0,0,1,1-1H50a1.0029,1.0029,0,0,1,1,1ZM41,41a1,1,0,0,1-1.6.8L36,39.25,32.6,41.8A1,1,0,0,1,31,41V38H23V54H49V38H41ZM30,52H26a1,1,0,0,1,0-2h4a1,1,0,0,1,0,2Zm4-3H26a1,1,0,0,1,0-2h8a1,1,0,0,1,0,2Z"/></g><text x="0" y="103" fill="#000000" font-size="5px" font-weight="bold" font-family="'Helvetica Neue', Helvetica, Arial-Unicode, Arial, Sans-serif">Created by Kmg Design</text><text x="0" y="108" fill="#000000" font-size="5px" font-weight="bold" font-family="'Helvetica Neue', Helvetica, Arial-Unicode, Arial, Sans-serif">from the Noun Project</text></svg>